<svg width="30" height="34" viewBox="0 0 30 34" fill="none" xmlns="http://www.w3.org/2000/svg">
<path id="Mask" fill-rule="evenodd" clip-rule="evenodd" d="M0.8998 14.1668C1.6373 15.0502 2.9498 15.171 3.83313 14.4335L12.9165 6.86475V31.5835C12.9165 32.7335 13.8498 33.6668 14.9998 33.6668C16.1498 33.6668 17.0831 32.7335 17.0831 31.5835V6.86475L26.1665 14.4335C27.0519 15.171 28.3644 15.0502 29.0998 14.1668C29.8373 13.2835 29.7186 11.9689 28.8331 11.2335L16.3331 0.816829C16.2352 0.733496 16.1186 0.693913 16.0102 0.631413C15.9248 0.581413 15.8498 0.523079 15.7561 0.485579C15.5123 0.389746 15.2581 0.333496 14.9998 0.333496C14.7415 0.333496 14.4873 0.389746 14.2436 0.485579C14.1498 0.523079 14.0748 0.581413 13.9894 0.631413C13.8811 0.693913 13.7644 0.733496 13.6665 0.816829L1.16647 11.2335C0.283134 11.9689 0.1623 13.2835 0.8998 14.1668" fill="#01384D"/>
</svg>
